Coordinates
version=1
nRows=10
nColumns=22
inDegrees=yes

Units are S.I. units (second, meters, Newtons, ...)
If the header above contains a line with 'inDegrees', this indicates whether rotational values are in degrees (yes) or radians (no).

endheader
time	pelvis_tilt	pelvis_list	pelvis_rotation	pelvis_tx	pelvis_ty	pelvis_tz	hip_flexion_r	hip_adduction_r	hip_rotation_r	knee_angle_r	ankle_angle_r	subtalar_angle_r	hip_flexion_l	hip_adduction_l	hip_rotation_l	knee_angle_l	ankle_angle_l	subtalar_angle_l	lumbar_extension	lumbar_bending	lumbar_rotation
      0.01000000	    -11.38663211	      4.37862766	    -38.26556176	     -0.97632693	      0.88145263	     -0.37320562	     10.66020909	      3.56000606	      3.80266299	     -2.90244046	      9.07564922	     -4.18739024	      8.61836993	     -4.52836498	     -3.69264678	     -4.41681051	     12.61605276	      2.93074118	      6.68214875	      2.35813001	      9.71673638
      0.02000000	    -11.39094829	      4.38742634	    -38.29058142	     -0.97625996	      0.88144133	     -0.37301938	     10.65547259	      3.56359837	      3.79848682	     -2.89738210	      9.07756557	     -4.18732670	      8.61421223	     -4.53323489	     -3.69021648	     -4.42374428	     12.61668668	      2.93040010	      6.68858970	      2.35195263	      9.70722631
      0.03000000	    -11.41196885	      4.40540340	    -38.31281056	     -0.97615483	      0.88139726	     -0.37279776	     10.64223990	      3.56786921	      3.80936306	     -2.84482722	      9.08787260	     -4.18366533	      8.62440086	     -4.53973328	     -3.72045270	     -4.42411075	     12.63469021	      2.92582894	      6.72181147	      2.35211996	      9.67186123
      0.04000000	    -11.43698218	      4.42168760	    -38.33480220	     -0.97607559	      0.88135229	     -0.37257016	     10.63004924	      3.57637492	      3.83048150	     -2.78722318	      9.07628529	     -4.17450834	      8.64731404	     -4.55347119	     -3.73705110	     -4.44466641	     12.65371136	      2.92094793	      6.75290667	      2.35310185	      9.64298374
      0.05000000	    -11.47215071	      4.43538168	    -38.34865123	     -0.97601896	      0.88130389	     -0.37234036	     10.62397865	      3.59381089	      3.85022000	     -2.72679027	      9.03493198	     -4.15147619	      8.68601658	     -4.57769906	     -3.74215329	     -4.47790096	     12.67967149	      2.91616505	      6.78825540	      2.35680465	      9.61496310
      0.06000000	    -11.48066207	      4.44541813	    -38.37133294	     -0.97596080	      0.88129112	     -0.37209863	     10.61925560	      3.60049786	      3.84484621	     -2.71855637	      9.03679914	     -4.15004088	      8.68250433	     -4.58766391	     -3.74100853	     -4.48210403	     12.68080998	      2.91593339	      6.79418858	      2.34452121	      9.60228881
      0.07000000	    -11.51221194	      4.46337650	    -38.38022517	     -0.97582078	      0.88123517	     -0.37184526	     10.59804501	      3.60775201	      3.84273679	     -2.64173742	      9.04646520	     -4.13657038	      8.69487763	     -4.60075943	     -3.76847586	     -4.47009530	     12.69755399	      2.91405769	      6.84037794	      2.34759824	      9.54921719
      0.08000000	    -11.54269385	      4.47541611	    -38.37860429	     -0.97570970	      0.88119435	     -0.37159965	     10.56941764	      3.61844657	      3.85487590	     -2.55580427	      9.01984865	     -4.10755084	      8.72281591	     -4.62096519	     -3.76431923	     -4.49397648	     12.71532706	      2.91385177	      6.87725622	      2.34386005	      9.51188908
      0.09000000	    -11.56526910	      4.48747882	    -38.38946081	     -0.97558567	      0.88116346	     -0.37134726	     10.54817659	      3.62623829	      3.85402298	     -2.49761120	      9.00192058	     -4.08068753	      8.73334792	     -4.63555822	     -3.76938706	     -4.50251229	     12.73077113	      2.91384224	      6.90748250	      2.34010924	      9.48567266
      0.10000000	    -11.58698840	      4.49848569	    -38.40256794	     -0.97546465	      0.88113509	     -0.37110571	     10.51907257	      3.63228633	      3.87062392	     -2.42501345	      8.97007252	     -4.02825049	      8.74940870	     -4.65063128	     -3.77067300	     -4.52375409	     12.74861174	      2.91426215	      6.93368724	      2.33827356	      9.46428422
